<svg xmlns="http://www.w3.org/2000/svg" width="70" height="68" viewBox="0 0 70 68" fill="none"><rect x="1.5" y="1" width="67" height="66" rx="33" stroke="white" stroke-width="2"></rect><path d="M31.667 33.5488H33.8789C34.4648 33.5488 34.9678 33.4707 35.3877 33.3145C35.8174 33.1484 36.1641 32.9189 36.4277 32.626C36.6719 32.3721 36.8525 32.0645 36.9697 31.7031C37.0967 31.332 37.1602 30.9316 37.1602 30.502C37.1602 30.082 37.0967 29.7012 36.9697 29.3594C36.8525 29.0078 36.6719 28.7051 36.4277 28.4512C36.1836 28.207 35.8711 28.0166 35.4902 27.8799C35.1191 27.7432 34.6846 27.6748 34.1865 27.6748C33.7764 27.6748 33.3906 27.7334 33.0293 27.8506C32.6777 27.9678 32.3701 28.1338 32.1064 28.3486C31.833 28.5732 31.6182 28.8418 31.4619 29.1543C31.3057 29.4668 31.2275 29.8184 31.2275 30.209H27.1553C27.1553 29.3398 27.3311 28.5488 27.6826 27.8359C28.0439 27.123 28.5371 26.5078 29.1621 25.9902C29.7871 25.4824 30.5195 25.0869 31.3594 24.8037C32.209 24.5205 33.1221 24.3789 34.0986 24.3789C35.1533 24.3789 36.1201 24.5107 36.999 24.7744C37.8779 25.0283 38.6299 25.4092 39.2549 25.917C39.8799 26.4346 40.3633 27.0742 40.7051 27.8359C41.0566 28.5879 41.2324 29.4619 41.2324 30.458C41.2324 30.917 41.1641 31.3711 41.0273 31.8203C40.8906 32.2598 40.6904 32.6797 40.4268 33.0801C40.1631 33.4805 39.8359 33.8516 39.4453 34.1934C39.0547 34.5254 38.6055 34.8135 38.0977 35.0576C38.6934 35.2725 39.2061 35.5459 39.6357 35.8779C40.0752 36.21 40.4365 36.5859 40.7197 37.0059C41.0029 37.4355 41.2129 37.9043 41.3496 38.4121C41.4863 38.9199 41.5547 39.457 41.5547 40.0234C41.5547 41.0195 41.3643 41.9082 40.9834 42.6895C40.6025 43.4707 40.0801 44.125 39.416 44.6523C38.752 45.1895 37.9609 45.5996 37.043 45.8828C36.1348 46.1562 35.1533 46.293 34.0986 46.293C33.1904 46.293 32.3018 46.1709 31.4326 45.9268C30.5732 45.6729 29.8066 45.292 29.1328 44.7842C28.459 44.2861 27.917 43.6562 27.5068 42.8945C27.1064 42.1328 26.9062 41.2344 26.9062 40.1992H30.9785C30.9785 40.6094 31.0566 40.9902 31.2129 41.3418C31.3691 41.6836 31.5938 41.9766 31.8867 42.2207C32.1699 42.4746 32.5068 42.6748 32.8975 42.8213C33.2881 42.958 33.7178 43.0264 34.1865 43.0264C34.7139 43.0264 35.1875 42.9531 35.6074 42.8066C36.0273 42.6602 36.3789 42.4453 36.6621 42.1621C36.9355 41.9082 37.1406 41.5957 37.2773 41.2246C37.4238 40.8535 37.4971 40.4385 37.4971 39.9795C37.4971 39.4033 37.4141 38.9102 37.248 38.5C37.082 38.0898 36.8428 37.7529 36.5303 37.4893C36.208 37.2256 35.8223 37.0303 35.373 36.9033C34.9336 36.7764 34.4355 36.7129 33.8789 36.7129H31.667V33.5488Z" fill="white"></path></svg>