<svg xmlns="http://www.w3.org/2000/svg" width="70" height="68" viewBox="0 0 70 68" fill="none"><rect x="1.5" y="1" width="67" height="66" rx="33" stroke="white" stroke-width="2"></rect><path d="M41.5107 46H26.9648V43.2168L33.8643 35.8047C34.4014 35.2188 34.8555 34.6865 35.2266 34.208C35.5977 33.7295 35.9004 33.29 36.1348 32.8896C36.3594 32.499 36.5205 32.1328 36.6182 31.791C36.7256 31.4492 36.7793 31.1172 36.7793 30.7949C36.7793 30.3164 36.7109 29.8916 36.5742 29.5205C36.4375 29.1494 36.2471 28.832 36.0029 28.5684C35.749 28.3145 35.4463 28.1191 35.0947 27.9824C34.7529 27.8457 34.3721 27.7773 33.9521 27.7773C33.4053 27.7773 32.9219 27.8555 32.502 28.0117C32.0918 28.1582 31.75 28.3779 31.4766 28.6709C31.1934 28.9736 30.9785 29.3496 30.832 29.7988C30.6855 30.248 30.6123 30.7607 30.6123 31.3369H26.5254C26.5254 30.3896 26.7061 29.4961 27.0674 28.6562C27.4287 27.8066 27.9414 27.0645 28.6055 26.4297C29.2598 25.7949 30.0508 25.2969 30.9785 24.9355C31.916 24.5645 32.9512 24.3789 34.084 24.3789C35.168 24.3789 36.125 24.5303 36.9551 24.833C37.7949 25.1357 38.498 25.5605 39.0645 26.1074C39.6211 26.6543 40.0459 27.3135 40.3389 28.085C40.6318 28.8467 40.7783 29.6914 40.7783 30.6191C40.7783 31.3223 40.666 31.9961 40.4414 32.6406C40.2266 33.2754 39.9189 33.9053 39.5186 34.5303C39.1084 35.1553 38.6201 35.7949 38.0537 36.4492C37.4873 37.0938 36.8574 37.7725 36.1641 38.4854L32.1504 42.7334H41.5107V46Z" fill="white"></path></svg>