<svg xmlns="http://www.w3.org/2000/svg" width="70" height="69" viewBox="0 0 70 69" fill="none"><rect x="0.5" width="69" height="69" rx="34.5" fill="#192533"></rect><path d="M27.1542 36.075C26.9733 36.1405 26.8089 36.245 26.6728 36.3811C26.5367 36.5172 26.4322 36.6815 26.3667 36.8625C26.2607 37.1275 26.2347 37.4178 26.2921 37.6975C26.3494 37.9771 26.4876 38.2338 26.6894 38.4356C26.8913 38.6375 27.148 38.7756 27.4276 38.833C27.7072 38.8904 27.9976 38.8644 28.2626 38.7583C28.4393 38.6845 28.6021 38.5809 28.7438 38.4521C28.8726 38.3103 28.9762 38.1476 29.0501 37.9708C29.1317 37.7978 29.1717 37.608 29.1667 37.4167C29.1614 37.0305 29.0103 36.6607 28.7438 36.3812C28.5388 36.1789 28.2783 36.0418 27.9954 35.9873C27.7125 35.9328 27.4198 35.9633 27.1542 36.075ZM46.3167 30.2417L44.3334 24.3646C44.0309 23.5089 43.4697 22.7684 42.7276 22.2459C41.9856 21.7233 41.0994 21.4444 40.1917 21.4479H29.8084C28.9008 21.4444 28.0146 21.7233 27.2725 22.2459C26.5304 22.7684 25.9693 23.5089 25.6667 24.3646L23.6834 30.2854C22.7506 30.5297 21.9245 31.0753 21.3338 31.8375C20.743 32.5997 20.4207 33.5357 20.4167 34.5V40.3333C20.4193 41.236 20.7009 42.1157 21.2231 42.852C21.7453 43.5882 22.4824 44.145 23.3334 44.4458V46.1667C23.3334 46.5534 23.4871 46.9244 23.7606 47.1979C24.034 47.4713 24.405 47.625 24.7917 47.625C25.1785 47.625 25.5495 47.4713 25.8229 47.1979C26.0964 46.9244 26.2501 46.5534 26.2501 46.1667V44.7083H43.7501V46.1667C43.7501 46.5534 43.9037 46.9244 44.1772 47.1979C44.4507 47.4713 44.8216 47.625 45.2084 47.625C45.5952 47.625 45.9661 47.4713 46.2396 47.1979C46.5131 46.9244 46.6667 46.5534 46.6667 46.1667V44.4458C47.5178 44.145 48.2549 43.5882 48.777 42.852C49.2992 42.1157 49.5809 41.236 49.5834 40.3333V34.5C49.5795 33.5357 49.2571 32.5997 48.6664 31.8375C48.0756 31.0753 47.2496 30.5297 46.3167 30.2854V30.2417ZM28.423 25.2833C28.5208 24.9937 28.7072 24.7421 28.9558 24.5641C29.2044 24.3862 29.5027 24.2909 29.8084 24.2917H40.1917C40.5098 24.2751 40.8245 24.363 41.0878 24.5421C41.3511 24.7211 41.5486 24.9815 41.6501 25.2833L43.1813 30.125H26.8188L28.423 25.2833ZM46.6667 40.3333C46.6667 40.7201 46.5131 41.091 46.2396 41.3645C45.9661 41.638 45.5952 41.7917 45.2084 41.7917H24.7917C24.405 41.7917 24.034 41.638 23.7606 41.3645C23.4871 41.091 23.3334 40.7201 23.3334 40.3333V34.5C23.3334 34.1132 23.4871 33.7423 23.7606 33.4688C24.034 33.1953 24.405 33.0417 24.7917 33.0417H45.2084C45.5952 33.0417 45.9661 33.1953 46.2396 33.4688C46.5131 33.7423 46.6667 34.1132 46.6667 34.5V40.3333ZM41.7376 36.075C41.5566 36.1405 41.3923 36.245 41.2562 36.3811C41.1201 36.5172 41.0156 36.6815 40.9501 36.8625C40.844 37.1275 40.818 37.4178 40.8754 37.6975C40.9328 37.9771 41.0709 38.2338 41.2728 38.4356C41.4746 38.6375 41.7313 38.7756 42.0109 38.833C42.2906 38.8904 42.5809 38.8644 42.8459 38.7583C43.0269 38.6928 43.1912 38.5883 43.3273 38.4522C43.4634 38.3162 43.5679 38.1518 43.6334 37.9708C43.7151 37.7978 43.755 37.608 43.7501 37.4167C43.7447 37.0305 43.5936 36.6607 43.3272 36.3812C43.1221 36.1789 42.8617 36.0418 42.5788 35.9873C42.2959 35.9328 42.0032 35.9633 41.7376 36.075ZM36.4584 35.9583H33.5417C33.155 35.9583 32.784 36.112 32.5106 36.3855C32.2371 36.659 32.0834 37.0299 32.0834 37.4167C32.0834 37.8034 32.2371 38.1744 32.5106 38.4479C32.784 38.7213 33.155 38.875 33.5417 38.875H36.4584C36.8452 38.875 37.2161 38.7213 37.4896 38.4479C37.7631 38.1744 37.9167 37.8034 37.9167 37.4167C37.9167 37.0299 37.7631 36.659 37.4896 36.3855C37.2161 36.112 36.8452 35.9583 36.4584 35.9583Z" fill="white"></path></svg>