<svg xmlns="http://www.w3.org/2000/svg" width="70" height="69" viewBox="0 0 70 69" fill="none"><rect x="0.5" width="69" height="69" rx="34.5" fill="#192533"></rect><g clip-path="url(#clip0_172_456)"><path d="M35 42.05V44.575M35 29.525V31.875M35 50.725C43.75 50.725 50 47.625 50 40.725C50 33.225 46.25 28.225 38.75 24.475L41.7 20.675C41.8499 20.4257 41.9312 20.1412 41.9356 19.8503C41.9401 19.5594 41.8676 19.2725 41.7255 19.0187C41.5833 18.7649 41.3766 18.5532 41.1263 18.405C40.8759 18.2568 40.5909 18.1775 40.3 18.175H29.7C29.4091 18.1775 29.1241 18.2568 28.8737 18.405C28.6234 18.5532 28.4167 18.7649 28.2745 19.0187C28.1324 19.2725 28.0599 19.5594 28.0644 19.8503C28.0688 20.1412 28.1501 20.4257 28.3 20.675L31.25 24.5C23.75 28.275 20 33.275 20 40.775C20 47.625 26.25 50.725 35 50.725Z" stroke="white" stroke-width="3" stroke-linecap="round" stroke-linejoin="round"></path><path d="M32.4999 40.9C32.8049 41.2621 33.1889 41.5495 33.6222 41.7402C34.0556 41.9308 34.5269 42.0197 34.9999 42C35.7229 42.0493 36.4369 41.8163 36.9917 41.3501C37.5465 40.8839 37.8989 40.2207 37.9749 39.5C37.8989 38.7793 37.5465 38.1161 36.9917 37.6499C36.4369 37.1837 35.7229 36.9507 34.9999 37C34.2769 37.0493 33.5629 36.8163 33.0081 36.3501C32.4533 35.8839 32.1009 35.2207 32.0249 34.5C32.0948 33.7768 32.4455 33.1098 33.0018 32.6423C33.558 32.1749 34.2754 31.9443 34.9999 32C35.4646 31.9716 35.9299 32.0465 36.3621 32.2194C36.7944 32.3923 37.183 32.6589 37.4999 33" stroke="white" stroke-width="3" stroke-linecap="round" stroke-linejoin="round"></path></g><defs><clipPath id="clip0_172_456"><rect width="35" height="35" fill="white" transform="translate(17.5 17)"></rect></clipPath></defs></svg>