<svg xmlns="http://www.w3.org/2000/svg" width="259" height="46" viewBox="0 0 259 46" fill="none"><g clip-path="url(#clip0_199_721)"><path d="M74.0105 12.6585C78.6476 18.5292 78.771 26.7956 74.4105 32.8093L78.9044 37.295C85.6748 28.7821 85.5316 16.5624 78.4846 8.20239L74.0154 12.6585H74.0105Z" fill="#38A7A6"></path><path d="M70.4993 36.6639C63.9561 41.2777 54.8251 40.6812 48.9732 34.84C42.4349 28.3137 42.4349 17.6911 48.9732 11.1647C54.6622 5.4862 63.4474 4.75666 69.9463 8.95641L74.4648 4.44612C65.4524 -2.15911 52.6819 -1.39507 44.5337 6.7333C35.5459 15.7046 35.541 30.3002 44.5337 39.2715C52.8399 47.5625 65.9561 48.1885 74.9932 41.1544L70.4993 36.6688V36.6639Z" fill="white"></path><path d="M32.7064 36.659C26.1631 41.2728 17.0322 40.6763 11.1803 34.8351C4.64192 28.3088 4.64192 17.6862 11.1803 11.1598C16.8692 5.48131 25.6545 4.75178 32.1533 8.95152L36.6719 4.44124C27.6594 -2.16399 14.8889 -1.39995 6.7407 6.72842C-2.24704 15.6997 -2.25197 30.2953 6.7407 39.2666C15.047 47.5576 28.1631 48.1836 37.2003 41.1496L32.7064 36.6639V36.659Z" fill="#4EB16F"></path><path d="M97.9959 27.8257C97.9268 28.4172 97.7045 28.8756 97.3391 29.2009C96.9687 29.5213 96.4798 29.684 95.8675 29.684C95.2008 29.684 94.6724 29.4474 94.2724 28.9693C93.8724 28.4911 93.6699 27.8552 93.6699 27.0616V26.5243C93.6699 26.0018 93.7638 25.5434 93.9514 25.1491C94.1391 24.7547 94.4008 24.4491 94.7465 24.2371C95.0872 24.0252 95.4872 23.9167 95.9366 23.9167C96.5342 23.9167 97.0132 24.0843 97.3737 24.4146C97.7342 24.7498 97.9416 25.2082 98.0008 25.7948H97.2551C97.1909 25.3462 97.0527 25.0209 96.8354 24.8188C96.6181 24.6167 96.3218 24.5181 95.9317 24.5181C95.4576 24.5181 95.0872 24.6906 94.8156 25.0406C94.5489 25.3906 94.4107 25.8885 94.4107 26.5342V27.0764C94.4107 27.6876 94.5391 28.1707 94.7909 28.5306C95.0477 28.8904 95.4033 29.0728 95.8625 29.0728C96.2724 29.0728 96.5885 28.9791 96.8107 28.7918C97.0329 28.6045 97.1761 28.2792 97.2502 27.8207H97.9959V27.8257Z" fill="white"></path><path d="M99.2898 27.4807C99.2898 27.0716 99.3688 26.7068 99.5318 26.3766C99.6947 26.0512 99.917 25.7998 100.203 25.6224C100.49 25.4449 100.816 25.3562 101.186 25.3562C101.754 25.3562 102.213 25.5534 102.569 25.9477C102.919 26.3421 103.097 26.8646 103.097 27.5152V27.5645C103.097 27.9687 103.018 28.3335 102.865 28.6588C102.707 28.9792 102.485 29.2306 102.198 29.413C101.912 29.5954 101.576 29.6841 101.201 29.6841C100.633 29.6841 100.174 29.4869 99.8231 29.0926C99.4725 28.6983 99.2947 28.1807 99.2947 27.53V27.4807H99.2898ZM100.006 27.5645C100.006 28.0279 100.114 28.3976 100.327 28.6785C100.544 28.9595 100.831 29.0975 101.191 29.0975C101.552 29.0975 101.843 28.9546 102.055 28.6736C102.268 28.3877 102.376 27.9934 102.376 27.4807C102.376 27.0223 102.268 26.6526 102.05 26.3667C101.833 26.0808 101.542 25.9428 101.181 25.9428C100.821 25.9428 100.544 26.0808 100.327 26.3618C100.11 26.6427 100.001 27.042 100.001 27.5645H100.006Z" fill="white"></path><path d="M105.25 25.4351L105.275 25.9576C105.596 25.5583 106.011 25.3562 106.524 25.3562C107.408 25.3562 107.853 25.8541 107.863 26.8498V29.6052H107.147V26.8448C107.147 26.5442 107.078 26.3223 106.939 26.1794C106.806 26.0364 106.594 25.9625 106.307 25.9625C106.075 25.9625 105.873 26.0266 105.695 26.1498C105.522 26.273 105.384 26.4357 105.285 26.6378V29.6102H104.569V25.44H105.245L105.25 25.4351Z" fill="white"></path><path d="M111.957 28.501C111.957 28.3088 111.883 28.156 111.739 28.0525C111.596 27.944 111.339 27.8553 110.979 27.7764C110.618 27.6976 110.332 27.6088 110.12 27.5004C109.907 27.3919 109.749 27.2638 109.65 27.1159C109.547 26.968 109.497 26.7906 109.497 26.5835C109.497 26.2434 109.641 25.9526 109.932 25.716C110.223 25.4794 110.594 25.3611 111.043 25.3611C111.517 25.3611 111.902 25.4843 112.194 25.7258C112.49 25.9723 112.638 26.2829 112.638 26.6624H111.922C111.922 26.4652 111.838 26.2976 111.675 26.1596C111.507 26.0167 111.3 25.9477 111.048 25.9477C110.796 25.9477 110.584 26.0068 110.436 26.1153C110.288 26.2286 110.213 26.3765 110.213 26.5589C110.213 26.7314 110.283 26.8596 110.416 26.9483C110.554 27.037 110.801 27.1208 111.157 27.1997C111.512 27.2786 111.804 27.3722 112.026 27.4856C112.248 27.594 112.411 27.7271 112.52 27.8849C112.628 28.0377 112.678 28.2299 112.678 28.4517C112.678 28.8264 112.53 29.1221 112.228 29.3489C111.932 29.5756 111.542 29.6841 111.068 29.6841C110.732 29.6841 110.436 29.6249 110.179 29.5066C109.922 29.3883 109.72 29.2256 109.576 29.0137C109.433 28.8017 109.359 28.57 109.359 28.3236H110.075C110.09 28.5602 110.184 28.7524 110.362 28.8904C110.539 29.0285 110.776 29.1024 111.068 29.1024C111.339 29.1024 111.557 29.0482 111.72 28.9397C111.883 28.8313 111.967 28.6834 111.967 28.501H111.957Z" fill="white"></path><path d="M116.766 29.1913C116.49 29.5166 116.08 29.6793 115.542 29.6793C115.097 29.6793 114.757 29.5511 114.525 29.2898C114.292 29.0335 114.174 28.649 114.169 28.1413V25.4253H114.885V28.1216C114.885 28.7526 115.142 29.068 115.655 29.068C116.204 29.068 116.564 28.8659 116.747 28.4568V25.4253H117.463V29.5955H116.781L116.766 29.1814V29.1913Z" fill="white"></path><path d="M119.907 29.6051H119.191V23.6851H119.907V29.6051Z" fill="white"></path><path d="M122.609 24.4246V25.4351H123.389V25.9872H122.609V28.5751C122.609 28.7427 122.643 28.8659 122.712 28.9497C122.781 29.0335 122.9 29.0729 123.068 29.0729C123.152 29.0729 123.265 29.0581 123.409 29.0285V29.6053C123.221 29.6546 123.038 29.6841 122.86 29.6841C122.539 29.6841 122.302 29.5856 122.139 29.3933C121.976 29.2011 121.897 28.925 121.897 28.5701V25.9823H121.137V25.4302H121.897V24.4197H122.614L122.609 24.4246Z" fill="white"></path><path d="M124.54 27.4807C124.54 27.0716 124.619 26.7068 124.782 26.3766C124.944 26.0512 125.167 25.7998 125.453 25.6224C125.74 25.4449 126.065 25.3562 126.436 25.3562C127.004 25.3562 127.463 25.5534 127.819 25.9477C128.169 26.3421 128.347 26.8646 128.347 27.5152V27.5645C128.347 27.9687 128.268 28.3335 128.115 28.6588C127.957 28.9792 127.735 29.2306 127.448 29.413C127.162 29.5954 126.826 29.6841 126.451 29.6841C125.883 29.6841 125.424 29.4869 125.073 29.0926C124.722 28.6983 124.544 28.1807 124.544 27.53V27.4807H124.54ZM125.256 27.5645C125.256 28.0279 125.364 28.3976 125.577 28.6785C125.794 28.9595 126.08 29.0975 126.441 29.0975C126.801 29.0975 127.093 28.9546 127.305 28.6736C127.517 28.3877 127.626 27.9934 127.626 27.4807C127.626 27.0223 127.517 26.6526 127.3 26.3667C127.083 26.0808 126.791 25.9428 126.431 25.9428C126.07 25.9428 125.794 26.0808 125.577 26.3618C125.359 26.6427 125.251 27.042 125.251 27.5645H125.256Z" fill="white"></path><path d="M131.843 26.0758C131.735 26.0561 131.616 26.0463 131.493 26.0463C131.023 26.0463 130.707 26.2434 130.54 26.6427V29.6052H129.823V25.435H130.52L130.53 25.9181C130.762 25.5435 131.098 25.3611 131.527 25.3611C131.665 25.3611 131.774 25.3808 131.843 25.4153V26.0808V26.0758Z" fill="white"></path><path d="M133.873 23.6902H134.737L133.7 24.8239H133.122L133.868 23.6902H133.873ZM133.863 29.6053H133.147V25.4351H133.863V29.6053Z" fill="white"></path><path d="M138.209 29.6051C138.169 29.5213 138.135 29.3784 138.11 29.1664C137.779 29.5115 137.379 29.684 136.92 29.684C136.51 29.684 136.169 29.5657 135.908 29.334C135.646 29.1024 135.512 28.8066 135.512 28.4517C135.512 28.0179 135.675 27.6778 136.006 27.4412C136.337 27.1997 136.801 27.0814 137.404 27.0814H138.1V26.7511C138.1 26.4997 138.026 26.3025 137.878 26.1547C137.73 26.0068 137.508 25.9328 137.216 25.9328C136.959 25.9328 136.747 25.9969 136.574 26.1251C136.401 26.2532 136.317 26.411 136.317 26.5934H135.601C135.601 26.3863 135.675 26.1842 135.824 25.992C135.972 25.7997 136.174 25.642 136.426 25.5336C136.678 25.4251 136.959 25.366 137.261 25.366C137.74 25.366 138.12 25.4843 138.391 25.7258C138.663 25.9673 138.806 26.2976 138.816 26.7166V28.6341C138.816 29.0186 138.866 29.3192 138.964 29.546V29.6101H138.214L138.209 29.6051ZM137.024 29.0629C137.246 29.0629 137.458 29.0038 137.661 28.8904C137.863 28.777 138.006 28.6242 138.095 28.4418V27.5841H137.537C136.663 27.5841 136.224 27.8405 136.224 28.3531C136.224 28.5749 136.298 28.7524 136.446 28.8756C136.594 29.0038 136.787 29.0629 137.024 29.0629Z" fill="white"></path><path d="M142.944 28.501C142.944 28.3088 142.87 28.156 142.727 28.0525C142.584 27.944 142.327 27.8553 141.967 27.7764C141.606 27.6976 141.32 27.6088 141.107 27.5004C140.895 27.3919 140.737 27.2638 140.638 27.1159C140.535 26.968 140.485 26.7906 140.485 26.5835C140.485 26.2434 140.628 25.9526 140.92 25.716C141.211 25.4794 141.581 25.3611 142.031 25.3611C142.505 25.3611 142.89 25.4843 143.182 25.7258C143.478 25.9723 143.626 26.2829 143.626 26.6624H142.91C142.91 26.4652 142.826 26.2976 142.663 26.1596C142.495 26.0167 142.288 25.9477 142.036 25.9477C141.784 25.9477 141.572 26.0068 141.423 26.1153C141.275 26.2286 141.201 26.3765 141.201 26.5589C141.201 26.7314 141.27 26.8596 141.404 26.9483C141.537 27.037 141.789 27.1208 142.144 27.1997C142.5 27.2786 142.791 27.3722 143.014 27.4856C143.236 27.594 143.399 27.7271 143.507 27.8849C143.616 28.0377 143.665 28.2299 143.665 28.4517C143.665 28.8264 143.517 29.1221 143.216 29.3489C142.92 29.5756 142.53 29.6841 142.056 29.6841C141.72 29.6841 141.423 29.6249 141.167 29.5066C140.91 29.3883 140.707 29.2256 140.564 29.0137C140.421 28.8017 140.347 28.57 140.347 28.3236H141.063C141.078 28.5602 141.172 28.7524 141.349 28.8904C141.527 29.0285 141.764 29.1024 142.061 29.1024C142.332 29.1024 142.549 29.0482 142.712 28.9397C142.875 28.8313 142.959 28.6834 142.959 28.501H142.944Z" fill="white"></path><path d="M148.629 29.6052H147.888V23.9907H148.629V29.6052Z" fill="white"></path><path d="M151.132 25.4351L151.157 25.9576C151.478 25.5583 151.893 25.3562 152.406 25.3562C153.29 25.3562 153.735 25.8541 153.745 26.8498V29.6052H153.029V26.8448C153.029 26.5442 152.96 26.3223 152.821 26.1794C152.688 26.0364 152.476 25.9625 152.189 25.9625C151.957 25.9625 151.755 26.0266 151.577 26.1498C151.404 26.273 151.266 26.4357 151.167 26.6378V29.6102H150.451V25.44H151.127L151.132 25.4351Z" fill="white"></path><path d="M156.377 24.4246V25.4351H157.157V25.9872H156.377V28.5751C156.377 28.7427 156.411 28.8659 156.481 28.9497C156.55 29.0335 156.668 29.0729 156.836 29.0729C156.92 29.0729 157.034 29.0581 157.177 29.0285V29.6053C156.989 29.6546 156.807 29.6841 156.629 29.6841C156.308 29.6841 156.071 29.5856 155.908 29.3933C155.745 29.2011 155.666 28.925 155.666 28.5701V25.9823H154.905V25.4302H155.666V24.4197H156.382L156.377 24.4246Z" fill="white"></path><path d="M160.308 29.6841C159.74 29.6841 159.281 29.4968 158.925 29.1271C158.569 28.7574 158.392 28.2595 158.392 27.6385V27.5054C158.392 27.0913 158.471 26.7216 158.629 26.3963C158.787 26.0709 159.009 25.8146 159.29 25.6322C159.572 25.4499 159.883 25.3562 160.214 25.3562C160.757 25.3562 161.177 25.5337 161.478 25.8935C161.779 26.2533 161.932 26.761 161.932 27.4265V27.7223H159.103C159.113 28.1314 159.231 28.4666 159.463 28.718C159.695 28.9694 159.987 29.0975 160.342 29.0975C160.594 29.0975 160.806 29.0482 160.984 28.9447C161.157 28.8412 161.31 28.7081 161.443 28.5356L161.878 28.8757C161.527 29.413 161.004 29.6792 160.303 29.6792L160.308 29.6841ZM160.219 25.9428C159.932 25.9428 159.69 26.0463 159.493 26.2583C159.295 26.4702 159.177 26.761 159.127 27.1406H161.221V27.0864C161.202 26.7216 161.103 26.4456 160.93 26.2435C160.757 26.0463 160.52 25.9428 160.219 25.9428Z" fill="white"></path><path d="M163.182 27.4856C163.182 26.835 163.335 26.3174 163.636 25.9329C163.937 25.5484 164.337 25.3562 164.831 25.3562C165.325 25.3562 165.74 25.5337 166.026 25.8935L166.061 25.4301H166.713V29.5017C166.713 30.0439 166.555 30.4679 166.234 30.7784C165.913 31.0889 165.483 31.2467 164.94 31.2467C164.639 31.2467 164.342 31.1826 164.056 31.0544C163.77 30.9263 163.547 30.7488 163.394 30.527L163.765 30.0982C164.071 30.4777 164.446 30.665 164.891 30.665C165.236 30.665 165.508 30.5664 165.705 30.3742C165.898 30.177 165.997 29.9059 165.997 29.551V29.1912C165.71 29.5214 165.32 29.6841 164.826 29.6841C164.333 29.6841 163.942 29.4869 163.641 29.0926C163.34 28.6983 163.187 28.1659 163.187 27.4856H163.182ZM163.898 27.5645C163.898 28.0328 163.997 28.4025 164.189 28.6736C164.382 28.9447 164.654 29.0778 164.999 29.0778C165.449 29.0778 165.779 28.8757 165.992 28.4666V26.5639C165.775 26.1646 165.444 25.9674 165.009 25.9674C164.663 25.9674 164.392 26.1005 164.194 26.3716C163.997 26.6427 163.903 27.042 163.903 27.5694L163.898 27.5645Z" fill="white"></path><path d="M170.392 26.0758C170.283 26.0561 170.165 26.0463 170.041 26.0463C169.572 26.0463 169.256 26.2434 169.088 26.6427V29.6052H168.372V25.435H169.068L169.078 25.9181C169.31 25.5435 169.646 25.3611 170.076 25.3611C170.214 25.3611 170.318 25.3808 170.392 25.4153V26.0808V26.0758Z" fill="white"></path><path d="M174.061 29.6051C174.021 29.5213 173.987 29.3784 173.962 29.1664C173.631 29.5115 173.231 29.684 172.772 29.684C172.362 29.684 172.021 29.5657 171.76 29.334C171.498 29.1024 171.365 28.8066 171.365 28.4517C171.365 28.0179 171.527 27.6778 171.858 27.4412C172.189 27.2046 172.653 27.0814 173.256 27.0814H173.952V26.7511C173.952 26.4997 173.878 26.3025 173.73 26.1547C173.582 26.0068 173.36 25.9328 173.068 25.9328C172.811 25.9328 172.599 25.9969 172.426 26.1251C172.253 26.2532 172.169 26.411 172.169 26.5934H171.453C171.453 26.3863 171.527 26.1842 171.676 25.992C171.824 25.7997 172.026 25.642 172.278 25.5336C172.53 25.4202 172.811 25.366 173.113 25.366C173.592 25.366 173.972 25.4843 174.244 25.7258C174.515 25.9673 174.658 26.2976 174.668 26.7166V28.6341C174.668 29.0186 174.718 29.3192 174.816 29.546V29.6101H174.066L174.061 29.6051ZM172.876 29.0629C173.098 29.0629 173.31 29.0038 173.513 28.8904C173.715 28.777 173.858 28.6242 173.947 28.4418V27.5841H173.389C172.515 27.5841 172.076 27.8405 172.076 28.3531C172.076 28.5749 172.15 28.7524 172.298 28.8756C172.446 29.0038 172.639 29.0629 172.876 29.0629Z" fill="white"></path><path d="M177.142 29.6051H176.426V23.6851H177.142V29.6051Z" fill="white"></path><path d="M180.609 29.6841C180.041 29.6841 179.582 29.4968 179.226 29.1271C178.871 28.7574 178.693 28.2595 178.693 27.6385V27.5054C178.693 27.0913 178.772 26.7216 178.93 26.3963C179.088 26.0709 179.31 25.8146 179.592 25.6322C179.878 25.4499 180.184 25.3562 180.515 25.3562C181.059 25.3562 181.478 25.5337 181.78 25.8935C182.081 26.2533 182.234 26.761 182.234 27.4265V27.7223H179.404C179.414 28.1314 179.533 28.4666 179.765 28.718C179.997 28.9694 180.288 29.0975 180.644 29.0975C180.896 29.0975 181.108 29.0482 181.286 28.9447C181.459 28.8412 181.612 28.7081 181.745 28.5356L182.18 28.8757C181.829 29.413 181.305 29.6792 180.604 29.6792L180.609 29.6841ZM180.52 25.9428C180.234 25.9428 179.992 26.0463 179.794 26.2583C179.597 26.4702 179.478 26.761 179.429 27.1406H181.523V27.0864C181.503 26.7216 181.404 26.4456 181.231 26.2435C181.059 26.0463 180.822 25.9428 180.52 25.9428Z" fill="white"></path><path d="M186.081 28.501C186.081 28.3088 186.007 28.156 185.863 28.0525C185.72 27.944 185.463 27.8553 185.103 27.7764C184.742 27.6976 184.456 27.6088 184.244 27.5004C184.031 27.3919 183.873 27.2638 183.775 27.1159C183.671 26.968 183.621 26.7906 183.621 26.5835C183.621 26.2434 183.765 25.9526 184.056 25.716C184.347 25.4794 184.718 25.3611 185.167 25.3611C185.641 25.3611 186.026 25.4843 186.318 25.7258C186.614 25.9723 186.762 26.2829 186.762 26.6624H186.046C186.046 26.4652 185.962 26.2976 185.799 26.1596C185.631 26.0167 185.424 25.9477 185.172 25.9477C184.92 25.9477 184.708 26.0068 184.56 26.1153C184.412 26.2286 184.337 26.3765 184.337 26.5589C184.337 26.7314 184.407 26.8596 184.54 26.9483C184.673 27.037 184.925 27.1208 185.281 27.1997C185.636 27.2786 185.928 27.3722 186.15 27.4856C186.372 27.594 186.535 27.7271 186.644 27.8849C186.752 28.0377 186.802 28.2299 186.802 28.4517C186.802 28.8264 186.654 29.1221 186.352 29.3489C186.056 29.5756 185.666 29.6841 185.192 29.6841C184.856 29.6841 184.56 29.6249 184.303 29.5066C184.046 29.3883 183.844 29.2256 183.7 29.0137C183.557 28.8017 183.483 28.57 183.483 28.3236H184.199C184.214 28.5602 184.308 28.7524 184.486 28.8904C184.663 29.0285 184.9 29.1024 185.197 29.1024C185.468 29.1024 185.686 29.0482 185.849 28.9397C186.012 28.8313 186.096 28.6834 186.096 28.501H186.081Z" fill="white"></path><path d="M188.288 30.7241L187.883 30.448C188.125 30.1128 188.254 29.7629 188.264 29.4079V28.7622H188.965V29.3192C188.965 29.5805 188.901 29.8368 188.772 30.098C188.644 30.3593 188.486 30.5663 188.293 30.7241H188.288Z" fill="white"></path><path d="M196.204 27.1257H193.844V29.6052H193.103V23.9907H196.585V24.597H193.844V26.5194H196.204V27.1257Z" fill="white"></path><path d="M197.953 24.3259C197.953 24.2125 197.987 24.1139 198.061 24.035C198.13 23.9562 198.239 23.9167 198.377 23.9167C198.516 23.9167 198.624 23.9562 198.693 24.035C198.767 24.1139 198.802 24.2125 198.802 24.3259C198.802 24.4393 198.767 24.5378 198.693 24.6167C198.619 24.6956 198.516 24.7301 198.377 24.7301C198.239 24.7301 198.135 24.6906 198.061 24.6167C197.992 24.5378 197.953 24.4442 197.953 24.3259ZM198.723 29.6051H198.007V25.435H198.723V29.6051Z" fill="white"></path><path d="M201.128 25.4351L201.152 25.9576C201.473 25.5583 201.888 25.3562 202.402 25.3562C203.286 25.3562 203.73 25.8541 203.74 26.8498V29.6052H203.024V26.8448C203.024 26.5442 202.955 26.3223 202.817 26.1794C202.683 26.0364 202.471 25.9625 202.185 25.9625C201.952 25.9625 201.75 26.0266 201.572 26.1498C201.399 26.273 201.261 26.4357 201.162 26.6378V29.6102H200.446V25.44H201.123L201.128 25.4351Z" fill="white"></path><path d="M207.982 29.6051C207.943 29.5213 207.908 29.3784 207.883 29.1664C207.553 29.5115 207.153 29.684 206.693 29.684C206.283 29.684 205.943 29.5657 205.681 29.334C205.419 29.1024 205.286 28.8066 205.286 28.4517C205.286 28.0179 205.449 27.6778 205.78 27.4412C206.111 27.1997 206.575 27.0814 207.177 27.0814H207.874V26.7511C207.874 26.4997 207.799 26.3025 207.651 26.1547C207.503 26.0068 207.281 25.9328 206.99 25.9328C206.733 25.9328 206.52 25.9969 206.348 26.1251C206.175 26.2532 206.091 26.411 206.091 26.5934H205.375C205.375 26.3863 205.449 26.1842 205.597 25.992C205.745 25.7997 205.948 25.642 206.199 25.5336C206.451 25.4202 206.733 25.366 207.034 25.366C207.513 25.366 207.893 25.4843 208.165 25.7258C208.437 25.9673 208.58 26.2976 208.59 26.7166V28.6341C208.59 29.0186 208.639 29.3192 208.738 29.546V29.6101H207.987L207.982 29.6051ZM206.797 29.0629C207.019 29.0629 207.232 29.0038 207.434 28.8904C207.637 28.777 207.78 28.6242 207.869 28.4418V27.5841H207.311C206.437 27.5841 205.997 27.8405 205.997 28.3531C205.997 28.5749 206.071 28.7524 206.219 28.8756C206.367 29.0038 206.56 29.0629 206.797 29.0629Z" fill="white"></path><path d="M210.965 25.4351L210.99 25.9576C211.311 25.5583 211.725 25.3562 212.239 25.3562C213.123 25.3562 213.567 25.8541 213.577 26.8498V29.6052H212.861V26.8448C212.861 26.5442 212.792 26.3223 212.654 26.1794C212.52 26.0364 212.308 25.9625 212.022 25.9625C211.79 25.9625 211.587 26.0266 211.409 26.1498C211.237 26.273 211.098 26.4357 210.999 26.6378V29.6102H210.283V25.44H210.96L210.965 25.4351Z" fill="white"></path><path d="M216.916 29.1024C217.172 29.1024 217.395 29.0235 217.582 28.8707C217.775 28.7179 217.879 28.5257 217.898 28.294H218.575C218.56 28.5306 218.481 28.7623 218.328 28.9742C218.175 29.1911 217.972 29.3637 217.721 29.4918C217.469 29.62 217.197 29.6841 216.916 29.6841C216.348 29.6841 215.893 29.4967 215.558 29.1172C215.222 28.7376 215.054 28.2201 215.054 27.5595V27.4412C215.054 27.037 215.128 26.6723 215.276 26.3568C215.424 26.0413 215.642 25.7949 215.918 25.6223C216.2 25.4498 216.526 25.3611 216.911 25.3611C217.38 25.3611 217.77 25.4991 218.081 25.7801C218.392 26.061 218.555 26.4258 218.575 26.8694H217.898C217.879 26.5983 217.775 26.3765 217.592 26.204C217.41 26.0315 217.182 25.9427 216.911 25.9427C216.545 25.9427 216.269 26.0709 216.066 26.3322C215.864 26.5934 215.765 26.968 215.765 27.4659V27.599C215.765 28.0771 215.864 28.4517 216.061 28.7081C216.259 28.9693 216.545 29.0975 216.911 29.0975L216.916 29.1024Z" fill="white"></path><path d="M219.968 24.3259C219.968 24.2125 220.002 24.1139 220.076 24.035C220.145 23.9562 220.254 23.9167 220.392 23.9167C220.531 23.9167 220.639 23.9562 220.708 24.035C220.782 24.1139 220.817 24.2125 220.817 24.3259C220.817 24.4393 220.782 24.5378 220.708 24.6167C220.634 24.6956 220.531 24.7301 220.392 24.7301C220.254 24.7301 220.15 24.6906 220.076 24.6167C220.007 24.5378 219.968 24.4442 219.968 24.3259ZM220.738 29.6051H220.022V25.435H220.738V29.6051Z" fill="white"></path><path d="M224.205 29.6841C223.637 29.6841 223.177 29.4968 222.822 29.1271C222.466 28.7574 222.289 28.2595 222.289 27.6385V27.5054C222.289 27.0913 222.368 26.7216 222.526 26.3963C222.684 26.0709 222.906 25.8146 223.187 25.6322C223.469 25.4499 223.78 25.3562 224.111 25.3562C224.654 25.3562 225.074 25.5337 225.375 25.8935C225.676 26.2533 225.829 26.761 225.829 27.4265V27.7223H223C223.01 28.1314 223.128 28.4666 223.36 28.718C223.592 28.9694 223.884 29.0975 224.239 29.0975C224.491 29.0975 224.703 29.0482 224.881 28.9447C225.054 28.8412 225.207 28.7081 225.34 28.5356L225.775 28.8757C225.424 29.413 224.901 29.6792 224.2 29.6792L224.205 29.6841ZM224.116 25.9428C223.829 25.9428 223.587 26.0463 223.39 26.2583C223.192 26.4702 223.074 26.761 223.024 27.1406H225.118V27.0864C225.098 26.7216 225 26.4456 224.827 26.2435C224.654 26.0463 224.417 25.9428 224.116 25.9428Z" fill="white"></path><path d="M229.266 26.0758C229.158 26.0561 229.039 26.0463 228.916 26.0463C228.447 26.0463 228.131 26.2434 227.963 26.6427V29.6052H227.247V25.435H227.943L227.953 25.9181C228.185 25.5435 228.521 25.3611 228.95 25.3611C229.089 25.3611 229.192 25.3808 229.266 25.4153V26.0808V26.0758Z" fill="white"></path><path d="M232.931 29.6051C232.891 29.5213 232.857 29.3784 232.832 29.1664C232.501 29.5115 232.101 29.684 231.642 29.684C231.232 29.684 230.891 29.5657 230.629 29.334C230.368 29.1024 230.234 28.8066 230.234 28.4517C230.234 28.0179 230.397 27.6778 230.728 27.4412C231.059 27.2046 231.523 27.0814 232.126 27.0814H232.822V26.7511C232.822 26.4997 232.748 26.3025 232.6 26.1547C232.452 26.0068 232.229 25.9328 231.938 25.9328C231.681 25.9328 231.469 25.9969 231.296 26.1251C231.123 26.2532 231.039 26.411 231.039 26.5934H230.323C230.323 26.3863 230.397 26.1842 230.545 25.992C230.694 25.7997 230.896 25.642 231.148 25.5336C231.4 25.4202 231.681 25.366 231.983 25.366C232.462 25.366 232.842 25.4843 233.113 25.7258C233.385 25.9673 233.528 26.2976 233.538 26.7166V28.6341C233.538 29.0186 233.587 29.3192 233.686 29.546V29.6101H232.936L232.931 29.6051ZM231.745 29.0629C231.968 29.0629 232.18 29.0038 232.383 28.8904C232.585 28.777 232.728 28.6242 232.817 28.4418V27.5841H232.259C231.385 27.5841 230.945 27.8405 230.945 28.3531C230.945 28.5749 231.02 28.7524 231.168 28.8756C231.316 29.0038 231.508 29.0629 231.745 29.0629Z" fill="white"></path><path d="M237.671 28.501C237.671 28.3088 237.597 28.156 237.454 28.0525C237.311 27.944 237.054 27.8553 236.693 27.7764C236.333 27.6976 236.047 27.6088 235.834 27.5004C235.622 27.3919 235.464 27.2638 235.365 27.1159C235.261 26.968 235.212 26.7906 235.212 26.5835C235.212 26.2434 235.355 25.9526 235.647 25.716C235.938 25.4794 236.308 25.3611 236.758 25.3611C237.232 25.3611 237.617 25.4843 237.908 25.7258C238.2 25.9674 238.353 26.2829 238.353 26.6624H237.637C237.637 26.4652 237.553 26.2976 237.39 26.1596C237.222 26.0167 237.014 25.9477 236.763 25.9477C236.511 25.9477 236.298 26.0068 236.15 26.1153C236.002 26.2286 235.928 26.3765 235.928 26.5589C235.928 26.7314 235.997 26.8596 236.131 26.9483C236.264 27.037 236.516 27.1208 236.871 27.1997C237.227 27.2786 237.518 27.3722 237.74 27.4856C237.963 27.594 238.126 27.7271 238.234 27.8849C238.343 28.0377 238.392 28.2299 238.392 28.4517C238.392 28.8264 238.244 29.1221 237.943 29.3489C237.647 29.5756 237.256 29.6841 236.782 29.6841C236.447 29.6841 236.15 29.6249 235.893 29.5066C235.637 29.3883 235.434 29.2256 235.291 29.0137C235.148 28.8017 235.074 28.57 235.074 28.3236H235.79C235.805 28.5602 235.898 28.7524 236.076 28.8904C236.254 29.0285 236.491 29.1024 236.787 29.1024C237.059 29.1024 237.276 29.0482 237.439 28.9397C237.602 28.8313 237.686 28.6834 237.686 28.501H237.671Z" fill="white"></path><path d="M144.357 38.7194L145.33 35.5942H146.095L144.416 40.4101C144.154 41.1052 143.744 41.4502 143.177 41.4502L143.043 41.4404L142.777 41.3911V40.8143L142.969 40.8291C143.211 40.8291 143.399 40.7798 143.537 40.6813C143.675 40.5827 143.784 40.4052 143.873 40.144L144.031 39.72L142.54 35.5942H143.32L144.362 38.7194H144.357Z" fill="white"></path><path d="M154.105 37.9851C154.036 38.5766 153.814 39.035 153.448 39.3604C153.083 39.6857 152.589 39.8434 151.977 39.8434C151.315 39.8434 150.782 39.6068 150.382 39.1287C149.982 38.6555 149.779 38.0147 149.779 37.2211V36.6838C149.779 36.1613 149.873 35.7028 150.061 35.3085C150.248 34.9141 150.51 34.6085 150.856 34.3966C151.202 34.1846 151.597 34.0762 152.046 34.0762C152.644 34.0762 153.123 34.2438 153.483 34.574C153.844 34.9092 154.051 35.3676 154.11 35.9542H153.365C153.3 35.5057 153.162 35.1803 152.945 34.9782C152.732 34.7761 152.431 34.6775 152.041 34.6775C151.567 34.6775 151.197 34.8501 150.925 35.2C150.653 35.55 150.52 36.0479 150.52 36.6936V37.2358C150.52 37.8471 150.648 38.3301 150.9 38.69C151.152 39.0498 151.513 39.2322 151.972 39.2322C152.382 39.2322 152.698 39.1385 152.92 38.9512C153.142 38.7639 153.286 38.4386 153.36 37.9802H154.105V37.9851Z" fill="white"></path><path d="M155.404 37.6399C155.404 37.2308 155.483 36.866 155.646 36.5357C155.809 36.2055 156.031 35.959 156.318 35.7816C156.604 35.6041 156.935 35.5154 157.3 35.5154C157.868 35.5154 158.328 35.7126 158.683 36.1069C159.034 36.5012 159.211 37.0237 159.211 37.6744V37.7237C159.211 38.1279 159.132 38.4927 158.979 38.818C158.826 39.1384 158.599 39.3898 158.313 39.5722C158.026 39.7546 157.69 39.8433 157.315 39.8433C156.747 39.8433 156.288 39.6461 155.937 39.2518C155.587 38.8574 155.409 38.3399 155.409 37.6892V37.6399H155.404ZM156.12 37.7237C156.12 38.187 156.229 38.5567 156.441 38.8377C156.658 39.1187 156.945 39.2567 157.305 39.2567C157.666 39.2567 157.957 39.1137 158.17 38.8328C158.382 38.5469 158.491 38.1525 158.491 37.6399C158.491 37.1815 158.382 36.8118 158.165 36.5259C157.947 36.24 157.656 36.102 157.295 36.102C156.935 36.102 156.658 36.24 156.441 36.5209C156.224 36.8019 156.115 37.2012 156.115 37.7237H156.12Z" fill="white"></path><path d="M161.365 35.5942L161.389 36.1167C161.71 35.7175 162.125 35.5154 162.639 35.5154C163.523 35.5154 163.967 36.0132 163.977 37.009V39.7644H163.261V37.004C163.261 36.7033 163.192 36.4815 163.053 36.3386C162.92 36.1956 162.708 36.1217 162.421 36.1217C162.189 36.1217 161.987 36.1858 161.809 36.309C161.636 36.4322 161.498 36.5949 161.399 36.797V39.7693H160.683V35.5992H161.36L161.365 35.5942Z" fill="white"></path><path d="M166.609 34.5838V35.5943H167.389V36.1464H166.609V38.7342C166.609 38.9018 166.644 39.0251 166.713 39.1089C166.782 39.1927 166.9 39.2321 167.068 39.2321C167.152 39.2321 167.266 39.2173 167.409 39.1877V39.7645C167.221 39.8137 167.039 39.8433 166.861 39.8433C166.54 39.8433 166.303 39.7447 166.14 39.5525C165.977 39.3603 165.898 39.0842 165.898 38.7293V36.1414H165.137V35.5894H165.898V34.5789H166.614L166.609 34.5838Z" fill="white"></path><path d="M171.384 39.7646C171.345 39.6808 171.31 39.5378 171.286 39.3259C170.955 39.6709 170.555 39.8434 170.095 39.8434C169.686 39.8434 169.345 39.7251 169.083 39.4935C168.821 39.2618 168.688 38.966 168.688 38.6111C168.688 38.1773 168.851 37.8372 169.182 37.6006C169.513 37.3591 169.977 37.2408 170.579 37.2408H171.276V36.9105C171.276 36.6591 171.202 36.462 171.053 36.3141C170.905 36.1662 170.683 36.0923 170.392 36.0923C170.135 36.0923 169.923 36.1563 169.75 36.2845C169.577 36.4127 169.493 36.5704 169.493 36.7528H168.777C168.777 36.5457 168.851 36.3436 168.999 36.1514C169.147 35.9592 169.35 35.8014 169.602 35.693C169.853 35.5796 170.135 35.5254 170.436 35.5254C170.915 35.5254 171.295 35.6437 171.567 35.8852C171.839 36.1268 171.982 36.457 171.992 36.876V38.7935C171.992 39.178 172.041 39.4787 172.14 39.7054V39.7695H171.389L171.384 39.7646ZM170.199 39.2223C170.421 39.2223 170.634 39.1632 170.836 39.0498C171.039 38.9365 171.182 38.7836 171.271 38.6013V37.7436H170.713C169.839 37.7436 169.399 37.9999 169.399 38.5125C169.399 38.7343 169.473 38.9118 169.621 39.035C169.769 39.1632 169.962 39.2223 170.199 39.2223Z" fill="white"></path><path d="M177.231 37.7238C177.231 38.3597 177.083 38.8723 176.792 39.2617C176.501 39.6462 176.105 39.8434 175.612 39.8434C175.083 39.8434 174.673 39.6561 174.387 39.2864L174.352 39.7694H173.696V33.8494H174.412V36.0577C174.698 35.7028 175.098 35.5204 175.607 35.5204C176.115 35.5204 176.51 35.7126 176.802 36.0971C177.093 36.4816 177.236 37.0041 177.236 37.6696V37.7336L177.231 37.7238ZM176.515 37.6449C176.515 37.1569 176.422 36.7823 176.234 36.521C176.046 36.2549 175.775 36.1218 175.424 36.1218C174.955 36.1218 174.614 36.3387 174.407 36.7774V38.5815C174.624 39.0202 174.965 39.2371 175.429 39.2371C175.77 39.2371 176.036 39.104 176.229 38.8378C176.421 38.5716 176.515 38.1773 176.515 37.6449Z" fill="white"></path><path d="M179.493 39.7645H178.777V33.8445H179.493V39.7645Z" fill="white"></path><path d="M182.955 39.8433C182.387 39.8433 181.928 39.656 181.572 39.2863C181.217 38.9166 181.039 38.4187 181.039 37.7976V37.6645C181.039 37.2505 181.118 36.8808 181.276 36.5555C181.434 36.2301 181.656 35.9738 181.938 35.7914C182.219 35.609 182.53 35.5154 182.861 35.5154C183.404 35.5154 183.824 35.6928 184.125 36.0527C184.427 36.4125 184.58 36.9202 184.58 37.5857V37.8814H181.75C181.76 38.2906 181.878 38.6258 182.11 38.8771C182.343 39.1285 182.634 39.2567 182.989 39.2567C183.241 39.2567 183.454 39.2074 183.631 39.1039C183.804 39.0004 183.957 38.8673 184.091 38.6948L184.525 39.0349C184.175 39.5722 183.651 39.8384 182.95 39.8384L182.955 39.8433ZM182.866 36.102C182.58 36.102 182.338 36.2055 182.14 36.4174C181.943 36.6294 181.824 36.9202 181.775 37.2998H183.868V37.2456C183.849 36.8808 183.75 36.6047 183.577 36.4026C183.404 36.2055 183.167 36.102 182.866 36.102Z" fill="white"></path><path d="M188.432 38.6602C188.432 38.468 188.357 38.3152 188.214 38.2116C188.071 38.1032 187.814 38.0145 187.454 37.9356C187.093 37.8567 186.807 37.768 186.594 37.6596C186.382 37.5511 186.224 37.423 186.125 37.2751C186.022 37.1272 185.972 36.9498 185.972 36.7427C185.972 36.4026 186.115 36.1118 186.407 35.8752C186.698 35.6386 187.069 35.5203 187.518 35.5203C187.992 35.5203 188.377 35.6435 188.669 35.885C188.96 36.1266 189.113 36.442 189.113 36.8216H188.397C188.397 36.6244 188.313 36.4568 188.15 36.3188C187.982 36.1759 187.775 36.1068 187.523 36.1068C187.271 36.1068 187.059 36.166 186.911 36.2744C186.762 36.3878 186.688 36.5357 186.688 36.7181C186.688 36.8906 186.757 37.0188 186.891 37.1075C187.024 37.1962 187.276 37.28 187.632 37.3589C187.987 37.4378 188.278 37.5314 188.501 37.6448C188.723 37.7532 188.886 37.8863 188.995 38.0441C189.103 38.1969 189.153 38.3891 189.153 38.6109C189.153 38.9855 189.004 39.2813 188.703 39.508C188.407 39.7348 188.017 39.8432 187.543 39.8432C187.207 39.8432 186.911 39.7841 186.654 39.6658C186.397 39.5475 186.194 39.3848 186.051 39.1729C185.908 38.9609 185.834 38.7292 185.834 38.4828H186.55C186.565 38.7194 186.659 38.9116 186.836 39.0496C187.014 39.1876 187.251 39.2616 187.548 39.2616C187.819 39.2616 188.036 39.2074 188.199 39.0989C188.362 38.9905 188.446 38.8426 188.446 38.6602H188.432Z" fill="white"></path><path d="M128.07 17.0948C127.858 17.0948 127.69 17.0258 127.567 16.8927C127.438 16.7596 127.374 16.6019 127.374 16.4195V2.06545C127.374 1.88799 127.438 1.73026 127.567 1.59224C127.695 1.45915 127.853 1.39014 128.051 1.39014H136.228C136.406 1.39014 136.564 1.45422 136.703 1.58238C136.836 1.71054 136.905 1.86828 136.905 2.06545C136.905 2.2429 136.836 2.40064 136.703 2.52387C136.569 2.65203 136.411 2.71611 136.228 2.71611H128.653L128.742 2.58302V8.55237L128.628 8.35027H135.211C135.389 8.35027 135.547 8.41435 135.685 8.54252C135.819 8.67068 135.888 8.82841 135.888 9.02558C135.888 9.20304 135.819 9.36078 135.685 9.48401C135.552 9.61217 135.394 9.67625 135.211 9.67625H128.584L128.742 9.47415V16.4294C128.742 16.6068 128.678 16.7645 128.549 16.9026C128.421 17.0357 128.263 17.1047 128.065 17.1047L128.07 17.0948Z" fill="white"></path><path d="M141.508 16.3997C141.493 16.592 141.414 16.7596 141.271 16.8927C141.127 17.0258 140.969 17.0948 140.787 17.0948C140.564 17.0948 140.392 17.0258 140.268 16.8927C140.15 16.7596 140.09 16.592 140.09 16.3997V2.09005C140.09 1.89781 140.159 1.73021 140.293 1.59712C140.426 1.46403 140.599 1.39502 140.811 1.39502C140.989 1.39502 141.152 1.46403 141.295 1.59712C141.438 1.73021 141.508 1.89781 141.508 2.09005V16.3997Z" fill="white"></path><path d="M157.196 2.56326C157.374 2.68156 157.483 2.83437 157.513 3.02168C157.542 3.20899 157.488 3.39137 157.354 3.56883C157.251 3.71671 157.117 3.79557 156.959 3.80543C156.801 3.81529 156.643 3.78079 156.475 3.70685C155.922 3.33222 155.315 3.0414 154.653 2.83437C153.991 2.62734 153.295 2.51889 152.564 2.51889C151.651 2.51889 150.801 2.68156 150.011 3.01182C149.226 3.34208 148.54 3.80543 147.957 4.40188C147.374 4.99832 146.92 5.70813 146.599 6.53132C146.278 7.35451 146.115 8.25657 146.115 9.24735C146.115 10.2381 146.278 11.1895 146.609 12.0176C146.94 12.8457 147.399 13.5605 147.991 14.1618C148.584 14.7583 149.27 15.2167 150.046 15.5322C150.826 15.8477 151.666 16.0054 152.564 16.0054C153.3 16.0054 153.991 15.9019 154.643 15.6899C155.295 15.4829 155.908 15.197 156.475 14.8372C156.624 14.7484 156.782 14.7139 156.95 14.7386C157.113 14.7632 157.256 14.847 157.374 14.9949C157.493 15.1576 157.537 15.3399 157.508 15.5322C157.478 15.7244 157.379 15.8674 157.216 15.9561C156.841 16.1976 156.401 16.4244 155.888 16.6413C155.379 16.8582 154.841 17.0258 154.268 17.1441C153.7 17.2624 153.127 17.3215 152.559 17.3215C151.483 17.3215 150.466 17.1293 149.512 16.7399C148.559 16.3504 147.72 15.8033 146.994 15.0935C146.268 14.3837 145.695 13.5358 145.275 12.545C144.856 11.5592 144.648 10.46 144.648 9.24735C144.648 8.03475 144.856 7.00946 145.265 6.0384C145.675 5.06733 146.243 4.21949 146.964 3.48996C147.685 2.76536 148.52 2.19849 149.483 1.79429C150.441 1.39009 151.468 1.18799 152.559 1.18799C153.414 1.18799 154.238 1.30629 155.033 1.54783C155.829 1.78936 156.545 2.12455 157.192 2.55833L157.196 2.56326Z" fill="white"></path><path d="M174.411 9.2473C174.411 10.4303 174.229 11.5098 173.858 12.4908C173.493 13.4717 172.969 14.3244 172.298 15.0491C171.621 15.7737 170.826 16.3356 169.903 16.7299C168.979 17.1243 167.972 17.3264 166.881 17.3264C165.789 17.3264 164.762 17.1292 163.848 16.7299C162.935 16.3356 162.14 15.7737 161.468 15.0491C160.792 14.3244 160.268 13.4717 159.893 12.4908C159.517 11.5098 159.33 10.4303 159.33 9.2473C159.33 8.06427 159.517 6.98476 159.893 6.00383C160.268 5.02291 160.792 4.17014 161.468 3.44554C162.14 2.72093 162.935 2.159 163.848 1.76466C164.762 1.37031 165.774 1.16821 166.881 1.16821C167.987 1.16821 168.984 1.36538 169.903 1.76466C170.826 2.159 171.621 2.72093 172.298 3.44554C172.974 4.17014 173.493 5.02291 173.858 6.00383C174.224 6.98476 174.411 8.06427 174.411 9.2473ZM172.974 9.2473C172.974 7.91639 172.713 6.74815 172.189 5.73765C171.666 4.72715 170.95 3.93847 170.041 3.3716C169.132 2.80473 168.081 2.51883 166.885 2.51883C165.69 2.51883 164.648 2.80473 163.73 3.3716C162.806 3.93847 162.09 4.72715 161.572 5.73765C161.053 6.74815 160.797 7.91639 160.797 9.2473C160.797 10.5782 161.053 11.7464 161.572 12.7569C162.09 13.7674 162.806 14.5561 163.73 15.123C164.653 15.6899 165.705 15.9758 166.885 15.9758C168.066 15.9758 169.137 15.6899 170.041 15.123C170.95 14.5561 171.661 13.7674 172.189 12.7569C172.713 11.7464 172.974 10.5782 172.974 9.2473Z" fill="white"></path><path d="M189.108 1.39502C189.301 1.39502 189.454 1.45417 189.567 1.57247C189.681 1.69078 189.735 1.84358 189.735 2.02104V16.38C189.735 16.6068 189.666 16.7793 189.523 16.9074C189.38 17.0356 189.222 17.0997 189.039 17.0997C188.935 17.0997 188.832 17.08 188.738 17.0455C188.639 17.006 188.56 16.9518 188.501 16.8779L178.476 3.42095L178.856 3.19913V16.5032C178.856 16.6659 178.797 16.8089 178.678 16.9272C178.56 17.0455 178.407 17.1046 178.229 17.1046C178.036 17.1046 177.883 17.0455 177.77 16.9272C177.656 16.8089 177.602 16.6659 177.602 16.5032V2.0654C177.602 1.85837 177.666 1.69078 177.794 1.57247C177.923 1.45417 178.076 1.39502 178.254 1.39502C178.343 1.39502 178.441 1.41474 178.545 1.44924C178.649 1.48868 178.733 1.54783 178.792 1.64148L188.703 14.9653L188.481 15.3695V2.02104C188.481 1.84358 188.54 1.69078 188.659 1.57247C188.777 1.45417 188.93 1.39502 189.108 1.39502Z" fill="white"></path><path d="M120.846 5.57497C122.49 7.66006 122.535 10.593 120.989 12.7224L122.584 14.3146C124.984 11.2929 124.935 6.95517 122.431 3.99268L120.846 5.57497Z" fill="#38A7A6"></path><path d="M119.601 14.0927C117.28 15.7292 114.041 15.5173 111.962 13.447C109.641 11.1302 109.641 7.36424 111.962 5.04748C113.981 3.03141 117.097 2.77509 119.404 4.26373L121.009 2.66171C117.809 0.320307 113.28 0.591417 110.391 3.47504C107.201 6.65936 107.201 11.84 110.391 15.0194C113.339 17.9622 117.991 18.184 121.201 15.6849L119.606 14.0927H119.601Z" fill="white"></path><path d="M106.189 14.0927C103.868 15.7292 100.628 15.5173 98.5492 13.447C96.2282 11.1302 96.2282 7.36424 98.5492 5.04748C100.569 3.03141 103.685 2.77509 105.991 4.26373L107.596 2.66171C104.396 0.320307 99.8677 0.591417 96.9788 3.47504C93.7886 6.65936 93.7886 11.84 96.9788 15.0194C99.927 17.9622 104.579 18.184 107.789 15.6849L106.194 14.0927H106.189Z" fill="white"></path><path d="M202.249 17.3215C201.108 17.3363 200.12 17.1589 199.281 16.7941C198.441 16.4293 197.641 15.8723 196.876 15.1231C196.802 15.0491 196.738 14.9653 196.683 14.8766C196.629 14.7879 196.604 14.6844 196.604 14.5611C196.604 14.3837 196.673 14.2161 196.817 14.0682C196.96 13.9203 197.118 13.8464 197.301 13.8464C197.483 13.8464 197.646 13.9203 197.794 14.0682C198.377 14.6942 199.044 15.1773 199.785 15.5026C200.525 15.8329 201.325 15.9956 202.18 15.9956C202.901 15.9956 203.538 15.8822 204.101 15.6604C204.664 15.4386 205.108 15.1132 205.439 14.6942C205.77 14.2752 205.933 13.7873 205.933 13.2352C205.918 12.5451 205.725 11.993 205.36 11.574C204.994 11.155 204.501 10.805 203.888 10.5191C203.276 10.2332 202.594 9.98678 201.844 9.77975C201.231 9.58751 200.639 9.37062 200.081 9.13894C199.518 8.90727 199.024 8.62137 198.599 8.28618C198.175 7.95099 197.839 7.53693 197.597 7.03907C197.355 6.54615 197.236 5.95463 197.236 5.26453C197.236 4.47092 197.444 3.76603 197.864 3.14495C198.283 2.52386 198.876 2.04079 199.651 1.68588C200.422 1.3359 201.315 1.15845 202.338 1.15845C203.222 1.15845 204.071 1.30633 204.886 1.60701C205.701 1.9077 206.352 2.3464 206.832 2.93299C207.054 3.17452 207.167 3.39141 207.167 3.58365C207.167 3.74632 207.093 3.89912 206.945 4.04207C206.797 4.18502 206.629 4.25403 206.451 4.25403C206.303 4.25403 206.175 4.19981 206.071 4.0963C205.814 3.78082 205.493 3.49985 205.103 3.25339C204.713 3.00693 204.283 2.81468 203.809 2.68159C203.335 2.5485 202.846 2.47949 202.338 2.47949C201.631 2.47949 200.999 2.58794 200.436 2.80483C199.873 3.02171 199.434 3.33226 199.108 3.73646C198.787 4.14066 198.624 4.63359 198.624 5.21524C198.624 5.84126 198.802 6.3539 199.162 6.75317C199.523 7.14752 199.992 7.47778 200.58 7.73903C201.162 8.00028 201.785 8.24182 202.446 8.46856C203.088 8.64602 203.71 8.85305 204.298 9.08472C204.891 9.3164 205.414 9.6023 205.873 9.94734C206.333 10.2924 206.688 10.7262 206.95 11.2487C207.212 11.7712 207.345 12.4317 207.345 13.2204C207.345 14.0091 207.128 14.6696 206.693 15.2858C206.259 15.897 205.661 16.385 204.906 16.7448C204.15 17.1047 203.261 17.292 202.244 17.3068L202.249 17.3215Z" fill="white"></path><path d="M214.54 17.3214C213.479 17.3214 212.53 17.075 211.711 16.5821C210.886 16.0891 210.244 15.4533 209.79 14.6744C209.33 13.8956 209.103 13.0724 209.103 12.2049C209.103 11.5493 209.237 10.9134 209.498 10.3071C209.76 9.70079 210.16 9.15364 210.688 8.66071C211.222 8.16778 211.898 7.77837 212.723 7.49247L213.691 8.47833C212.521 8.73465 211.696 9.18814 211.217 9.84867C210.738 10.5092 210.496 11.2338 210.496 12.0225C210.496 12.6978 210.654 13.3337 210.97 13.94C211.286 14.5463 211.755 15.0441 212.387 15.4335C213.014 15.8229 213.79 16.0152 214.703 16.0152C215.676 16.0152 216.511 15.8525 217.207 15.5321C217.903 15.2117 218.486 14.7829 218.96 14.2554C219.434 13.7231 219.814 13.1266 220.106 12.4612C220.397 11.7957 220.605 11.1204 220.723 10.4303C220.753 10.2824 220.822 10.1641 220.926 10.0803C221.029 9.99655 221.173 9.95711 221.35 9.95711C221.558 9.95711 221.726 10.031 221.844 10.1789C221.963 10.3268 222.007 10.5141 221.977 10.7409C221.844 11.5493 221.597 12.3429 221.237 13.1168C220.876 13.8956 220.392 14.6005 219.775 15.2364C219.163 15.8722 218.417 16.375 217.548 16.7497C216.679 17.1243 215.676 17.3116 214.535 17.3116L214.54 17.3214ZM222.521 17.0503C222.447 17.0503 222.373 17.0356 222.308 17.006C222.239 16.9764 222.175 16.9468 222.116 16.9172C221.202 16.1976 220.323 15.5075 219.474 14.842C218.629 14.1766 217.785 13.4569 216.945 12.6781C216.106 11.8992 215.237 11.0021 214.338 9.98669C213.814 9.39024 213.34 8.80366 212.921 8.22694C212.501 7.65021 212.165 7.08827 211.908 6.53126C211.651 5.97919 211.528 5.42711 211.528 4.8701C211.528 4.16521 211.701 3.53427 212.047 2.97233C212.392 2.41039 212.876 1.97168 213.508 1.65128C214.135 1.33088 214.886 1.16821 215.755 1.16821C216.832 1.16821 217.726 1.37031 218.432 1.77451C219.138 2.17871 219.632 2.65685 219.913 3.20893C219.928 3.22372 219.953 3.27794 219.982 3.36667C220.012 3.4554 220.027 3.54412 220.027 3.63778C220.027 3.77087 219.973 3.90396 219.859 4.03212C219.745 4.16028 219.592 4.22436 219.4 4.22436C219.281 4.22436 219.177 4.19972 219.098 4.1455C219.014 4.09127 218.95 4.03212 218.906 3.95325C218.605 3.51948 218.214 3.15471 217.726 2.85403C217.237 2.55334 216.585 2.40546 215.76 2.40546C214.847 2.40546 214.15 2.63221 213.671 3.09063C213.192 3.54905 212.95 4.14057 212.95 4.87503C212.95 5.32359 213.079 5.80666 213.33 6.32423C213.587 6.84181 213.913 7.35938 214.308 7.88189C214.703 8.40439 215.123 8.9121 215.558 9.40503C216.155 10.0803 216.792 10.731 217.459 11.3669C218.126 12.0028 218.782 12.5992 219.434 13.1513C220.086 13.7034 220.703 14.2061 221.286 14.6547C221.869 15.1033 222.387 15.4976 222.837 15.8427C222.94 15.9166 223.015 16.0004 223.059 16.0891C223.103 16.1779 223.128 16.2814 223.128 16.4046C223.128 16.5278 223.074 16.6609 222.97 16.8187C222.866 16.9764 222.713 17.0553 222.521 17.0553V17.0503Z" fill="white"></path><path d="M232.857 17.3215C231.686 17.3215 230.615 17.1194 229.632 16.7152C228.649 16.311 227.795 15.7491 227.059 15.0195C226.323 14.2949 225.755 13.4372 225.35 12.4514C224.945 11.4655 224.743 10.3959 224.743 9.24241C224.743 8.08896 224.945 7.01931 225.35 6.03345C225.755 5.0476 226.323 4.18991 227.059 3.4653C227.795 2.7407 228.649 2.17383 229.632 1.76963C230.615 1.36543 231.686 1.16333 232.857 1.16333C233.652 1.16333 234.412 1.25699 235.148 1.4443C235.884 1.63161 236.55 1.91258 237.148 2.2872C237.252 2.36114 237.331 2.44987 237.385 2.54353C237.439 2.64211 237.464 2.75056 237.464 2.86886C237.464 3.0611 237.395 3.22377 237.252 3.35193C237.108 3.48009 236.965 3.54417 236.812 3.54417C236.738 3.54417 236.669 3.53431 236.61 3.50967C236.55 3.48502 236.481 3.46037 236.407 3.4308C235.899 3.15969 235.345 2.9428 234.743 2.77027C234.145 2.59775 233.513 2.51395 232.857 2.51395C231.568 2.51395 230.422 2.80971 229.42 3.40122C228.417 3.99273 227.627 4.79128 227.059 5.80178C226.491 6.81228 226.205 7.9608 226.205 9.24734C226.205 10.5339 226.491 11.6873 227.059 12.7028C227.627 13.7182 228.417 14.5217 229.42 15.1033C230.422 15.685 231.568 15.9758 232.857 15.9758C233.528 15.9758 234.21 15.8772 234.891 15.685C235.573 15.4927 236.16 15.2266 236.654 14.9012L236.541 15.3744V10.2135L236.876 10.529H232.99C232.797 10.529 232.629 10.4599 232.496 10.3269C232.363 10.1938 232.294 10.036 232.294 9.85364C232.294 9.64661 232.363 9.47902 232.496 9.36071C232.629 9.24241 232.797 9.18326 232.99 9.18326H237.262C237.469 9.18326 237.642 9.24734 237.765 9.3755C237.894 9.50366 237.958 9.6614 237.958 9.85857V15.266C237.958 15.3843 237.928 15.4977 237.869 15.6012C237.81 15.7047 237.726 15.7934 237.622 15.8723C236.945 16.3209 236.205 16.6758 235.385 16.937C234.57 17.1983 233.726 17.3314 232.857 17.3314V17.3215Z" fill="white"></path><path d="M243.696 7.22148C243.296 7.22641 242.946 7.16233 242.649 7.03417C242.353 6.90601 242.072 6.70884 241.8 6.44266C241.775 6.41801 241.751 6.38843 241.731 6.35393C241.711 6.32435 241.701 6.28492 241.701 6.24549C241.701 6.18141 241.726 6.12225 241.775 6.07296C241.825 6.01874 241.884 5.99409 241.948 5.99409C242.012 5.99409 242.072 6.01874 242.121 6.07296C242.328 6.29478 242.56 6.46237 242.822 6.58068C243.084 6.69898 243.365 6.7532 243.667 6.7532C243.918 6.7532 244.146 6.71377 244.343 6.6349C244.541 6.55603 244.699 6.44266 244.817 6.29478C244.936 6.1469 244.99 5.97438 244.99 5.78213C244.985 5.5406 244.916 5.34343 244.788 5.19555C244.659 5.04767 244.486 4.92444 244.269 4.82092C244.052 4.72234 243.81 4.63361 243.548 4.55967C243.331 4.49066 243.123 4.41672 242.926 4.33293C242.728 4.24913 242.555 4.15054 242.402 4.03224C242.249 3.91394 242.136 3.76606 242.052 3.59354C241.968 3.42101 241.923 3.20905 241.923 2.96752C241.923 2.68655 241.997 2.44009 242.146 2.21827C242.294 2.00138 242.506 1.82885 242.778 1.70562C243.049 1.58239 243.365 1.51831 243.726 1.51831C244.037 1.51831 244.338 1.57253 244.625 1.67605C244.911 1.77956 245.143 1.9373 245.311 2.14433C245.39 2.22813 245.43 2.30699 245.43 2.376C245.43 2.43516 245.405 2.48938 245.351 2.53867C245.296 2.58796 245.242 2.61261 245.178 2.61261C245.123 2.61261 245.079 2.59289 245.044 2.55839C244.956 2.44994 244.842 2.34643 244.704 2.26263C244.565 2.1739 244.412 2.10982 244.249 2.06053C244.081 2.01124 243.909 1.99152 243.731 1.99152C243.484 1.99152 243.257 2.03096 243.059 2.10489C242.862 2.18376 242.704 2.29221 242.59 2.43516C242.476 2.5781 242.417 2.75063 242.417 2.95766C242.417 3.17948 242.481 3.36186 242.61 3.49988C242.738 3.6379 242.901 3.7562 243.109 3.84986C243.316 3.94351 243.533 4.02731 243.765 4.10618C243.993 4.17026 244.21 4.2442 244.417 4.32307C244.625 4.40687 244.812 4.50545 244.97 4.62868C245.133 4.75192 245.257 4.90472 245.351 5.08711C245.444 5.26949 245.489 5.50609 245.489 5.78213C245.489 6.05817 245.415 6.29478 245.257 6.51167C245.104 6.72855 244.891 6.90108 244.625 7.02431C244.358 7.14754 244.047 7.21655 243.686 7.22148H243.696Z" fill="white"></path><path d="M246.565 7.1426C246.476 7.1426 246.407 7.11302 246.358 7.05387C246.309 6.99472 246.289 6.92078 246.289 6.83205V6.66446C246.289 6.5708 246.314 6.49686 246.358 6.44264C246.407 6.38842 246.476 6.36377 246.565 6.36377H246.62C246.709 6.36377 246.778 6.38842 246.827 6.44264C246.876 6.49686 246.896 6.5708 246.896 6.66446V6.83205C246.896 6.92078 246.872 6.99472 246.822 7.05387C246.773 7.11302 246.704 7.1426 246.615 7.1426H246.56H246.565Z" fill="white"></path><path d="M250.615 2.2182L248.689 6.98974C248.669 7.04396 248.639 7.08339 248.6 7.10804C248.565 7.13269 248.521 7.14747 248.472 7.14747C248.393 7.14747 248.333 7.12776 248.299 7.08832C248.264 7.04889 248.244 6.9996 248.244 6.94044C248.239 6.9158 248.244 6.88129 248.254 6.84679L250.348 1.73513C250.368 1.67598 250.397 1.63654 250.437 1.6119C250.476 1.58725 250.521 1.57739 250.575 1.57739C250.635 1.57739 250.684 1.59218 250.723 1.62176C250.763 1.65133 250.793 1.69077 250.817 1.73513L252.901 6.82707C252.911 6.85665 252.916 6.89115 252.916 6.92073C252.916 6.99467 252.891 7.05382 252.847 7.08832C252.798 7.12776 252.743 7.14747 252.679 7.14747C252.625 7.14747 252.58 7.13269 252.541 7.10311C252.501 7.07353 252.472 7.0341 252.452 6.98974L250.476 2.17876L250.62 2.2182H250.615ZM249.148 5.54546L249.346 5.07718H251.805L251.899 5.54546H249.148Z" fill="white"></path><path d="M253.825 7.1426C253.736 7.1426 253.667 7.11302 253.617 7.05387C253.568 6.99472 253.548 6.92078 253.548 6.83205V6.66446C253.548 6.5708 253.573 6.49686 253.617 6.44264C253.667 6.38842 253.736 6.36377 253.825 6.36377H253.879C253.968 6.36377 254.037 6.38842 254.086 6.44264C254.136 6.49686 254.155 6.5708 254.155 6.66446V6.83205C254.155 6.92078 254.131 6.99472 254.081 7.05387C254.032 7.11302 253.963 7.1426 253.874 7.1426H253.82H253.825Z" fill="white"></path><path d="M257.197 7.22148C256.797 7.22641 256.447 7.16233 256.151 7.03417C255.854 6.90601 255.573 6.70884 255.301 6.44266C255.276 6.41801 255.252 6.38843 255.232 6.35393C255.212 6.32435 255.202 6.28492 255.202 6.24549C255.202 6.18141 255.227 6.12225 255.276 6.07296C255.326 6.01874 255.385 5.99409 255.449 5.99409C255.514 5.99409 255.573 6.01874 255.622 6.07296C255.83 6.29478 256.062 6.46237 256.323 6.58068C256.585 6.69898 256.867 6.7532 257.168 6.7532C257.42 6.7532 257.647 6.71377 257.844 6.6349C258.042 6.55603 258.2 6.44266 258.318 6.29478C258.437 6.1469 258.491 5.97438 258.491 5.78213C258.486 5.5406 258.417 5.34343 258.289 5.19555C258.16 5.04767 257.988 4.92444 257.77 4.82092C257.553 4.72234 257.311 4.63361 257.049 4.55967C256.832 4.49066 256.625 4.41672 256.427 4.33293C256.23 4.24913 256.057 4.15054 255.904 4.03224C255.751 3.91394 255.637 3.76606 255.553 3.59354C255.469 3.42101 255.425 3.20905 255.425 2.96752C255.425 2.68655 255.499 2.44009 255.647 2.21827C255.795 2.00138 256.007 1.82885 256.279 1.70562C256.551 1.58239 256.867 1.51831 257.227 1.51831C257.538 1.51831 257.839 1.57253 258.126 1.67605C258.412 1.77956 258.644 1.9373 258.812 2.14433C258.891 2.22813 258.931 2.30699 258.931 2.376C258.931 2.43516 258.906 2.48938 258.852 2.53867C258.797 2.58796 258.743 2.61261 258.679 2.61261C258.625 2.61261 258.58 2.59289 258.546 2.55839C258.457 2.44994 258.343 2.34643 258.205 2.26263C258.067 2.1739 257.914 2.10982 257.751 2.06053C257.583 2.01124 257.41 1.99152 257.232 1.99152C256.985 1.99152 256.758 2.03096 256.56 2.10489C256.363 2.18376 256.205 2.29221 256.091 2.43516C255.978 2.5781 255.918 2.75063 255.918 2.95766C255.918 3.17948 255.983 3.36186 256.111 3.49988C256.239 3.6379 256.402 3.7562 256.61 3.84986C256.817 3.94351 257.035 4.02731 257.267 4.10618C257.494 4.17026 257.711 4.2442 257.918 4.32307C258.126 4.40687 258.314 4.50545 258.472 4.62868C258.635 4.75192 258.758 4.90472 258.852 5.08711C258.946 5.26949 258.99 5.50609 258.99 5.78213C258.99 6.05817 258.916 6.29478 258.758 6.51167C258.605 6.72855 258.393 6.90108 258.126 7.02431C257.859 7.15247 257.548 7.21655 257.188 7.22148H257.197Z" fill="white"></path></g><defs><clipPath id="clip0_199_721"><rect width="259" height="46" fill="white"></rect></clipPath></defs></svg>